<svg preserveAspectRatio="none" width="100%" height="100%" overflow="visible" style="display: block;" viewBox="0 0 50.1178 20.1178" fill="none" xmlns="http://www.w3.org/2000/svg">
<path id="Rizz" d="M7.80791 1.36944C9.85141 1.36944 11.545 1.96421 12.7278 3.05596C13.9109 4.14798 14.5803 5.73476 14.5804 7.71319C14.5804 10.289 13.4274 12.1237 11.47 13.0862L15.181 20.0452L15.2044 20.0882H9.92901L9.92022 20.0726L6.70928 13.8772H4.86846V20.0882H0.0295919V1.36944H7.80791ZM21.2923 6.03447V20.0882H16.4778V6.03447H21.2923ZM35.3753 6.03447V9.06377L35.3694 9.07158L29.8157 16.2522V16.2923H35.6019V20.0882H23.6175V17.3421L23.6243 17.3343L29.7063 9.84209V9.80498H23.844V6.03447H35.3753ZM49.8616 6.03447V9.06377L49.8558 9.07158L44.3011 16.2542V16.2923H50.0882V20.0882H38.1038V17.3421L38.1106 17.3343L44.1927 9.84112V9.80498H38.3304V6.03447H49.8616ZM4.86846 9.97783H6.70147C7.60434 9.97779 8.30768 9.81034 8.78447 9.44561C9.25952 9.08202 9.51494 8.51811 9.51494 7.71319C9.51487 6.89511 9.25921 6.30529 8.7835 5.91924C8.30663 5.53227 7.60372 5.34604 6.70147 5.346H4.86846V9.97783ZM18.8724 0.0295919C20.1954 0.0295919 21.2669 1.04631 21.2669 2.30108C21.2669 3.55588 20.1955 4.57256 18.8724 4.57256C17.5493 4.57247 16.4778 3.55583 16.4778 2.30108C16.4779 1.04636 17.5494 0.0296832 18.8724 0.0295919Z" fill="url(#paint0_linear_0_32)" stroke="url(#paint1_linear_0_32)" stroke-width="0.0588888"/>
<defs>
<linearGradient id="paint0_linear_0_32" x1="-0.101684" y1="-2.24282" x2="57.6349" y2="27.8971" gradientUnits="userSpaceOnUse">
<stop stop-color="#FF3419"/>
<stop offset="1" stop-color="#FF5E19"/>
</linearGradient>
<linearGradient id="paint1_linear_0_32" x1="1.09439" y1="-0.54352" x2="52.1198" y2="30.3244" gradientUnits="userSpaceOnUse">
<stop stop-color="#FF3419"/>
<stop offset="0.692308" stop-color="#FF5E19"/>
</linearGradient>
</defs>
</svg>
